<svg width="240" height="120" viewBox="0 0 240 120" fill="none" xmlns="http://www.w3.org/2000/svg">
<rect x="0.5" y="0.5" width="239" height="119" rx="9.5" stroke="#A1A3BB" stroke-dasharray="8 8"/>
<path opacity="0.2" d="M129.3 56.7002C128.8 56.7002 128.4 57.1002 128.4 57.6002C128.4 58.1002 128.8 58.5002 129.3 58.5002C129.8 58.5002 130.2 58.1002 130.2 57.6002C130.2 57.2002 129.8 56.7002 129.3 56.7002Z" fill="black"/>
<path opacity="0.2" d="M147.4 80.7996L134.7 68.0996C136.8 64.9996 137.9 61.3996 137.9 57.5996C137.9 47.0996 129.4 38.5996 118.9 38.5996C108.4 38.5996 99.9 47.0996 99.9 57.5996C99.9 68.0996 108.4 76.5996 118.9 76.5996C122.7 76.5996 126.3 75.4996 129.4 73.3996L132.9 76.8996L142.1 86.0996C142.8 86.7996 143.8 87.1996 144.8 87.1996C145.8 87.1996 146.8 86.7996 147.5 86.0996C148.2 85.3996 148.6 84.3996 148.6 83.3996C148.6 82.3996 148.1 81.4996 147.4 80.7996ZM128.9 71.4996C126 73.5996 122.5 74.7996 118.9 74.7996C109.5 74.7996 101.8 67.0996 101.8 57.6996C101.8 48.2996 109.5 40.5996 118.9 40.5996C128.3 40.5996 136 48.2996 136 57.6996C136 61.2996 134.9 64.7996 132.7 67.6996C131.6 69.1996 130.3 70.4996 128.9 71.4996ZM130.9 72.3996C131.9 71.5996 132.8 70.6996 133.6 69.6996L136.3 72.3996C135.5 73.3996 134.6 74.2996 133.6 75.0996L130.9 72.3996ZM146 84.8996C145.6 85.2996 145.2 85.4996 144.7 85.4996C144.2 85.4996 143.7 85.2996 143.4 84.8996L135 76.4996C136 75.6996 136.9 74.7996 137.7 73.7996L146.1 82.1996C146.5 82.5996 146.7 82.9996 146.7 83.4996C146.7 83.9996 146.4 84.4996 146 84.8996Z" fill="black"/>
<path opacity="0.2" d="M118.9 42.5C110.5 42.5 103.7 49.3 103.7 57.7C103.7 66.1 110.5 72.9 118.9 72.9C127.3 72.9 134.1 66.1 134.1 57.7C134.1 49.3 127.2 42.5 118.9 42.5ZM118.9 71C111.6 71 105.6 65 105.6 57.7C105.6 50.4 111.6 44.4 118.9 44.4C126.2 44.4 132.2 50.4 132.2 57.7C132.2 65 126.2 71 118.9 71Z" fill="black"/>
<path opacity="0.2" d="M129.5 53.6002C128.7 51.5002 127.3 49.7002 125.4 48.3002C123.5 47.0002 121.2 46.2002 118.9 46.2002C118.4 46.2002 118 46.6002 118 47.1002C118 47.6002 118.4 48.0002 118.9 48.0002C122.8 48.0002 126.4 50.4002 127.8 54.1002C127.9 54.5002 128.3 54.7002 128.7 54.7002C128.8 54.7002 128.9 54.7002 129 54.6002C129.4 54.7002 129.7 54.1002 129.5 53.6002Z" fill="black"/>
<path opacity="0.2" d="M43.2 75.7998C41.2 75.7998 39.6 77.3998 39.6 79.3998C39.6 81.2998 42.8 86.3998 43 86.5998C43 86.6998 43.1 86.6998 43.2 86.6998C43.3 86.6998 43.3 86.6998 43.4 86.5998C43.5 86.3998 46.8 81.2998 46.8 79.3998C46.8 77.3998 45.2 75.7998 43.2 75.7998ZM43.2 85.9998C42.9 85.4998 42.3 84.4998 41.7 83.4998C40.6 81.4998 40.1 80.0998 40.1 79.3998C40.1 77.6998 41.5 76.2998 43.2 76.2998C44.9 76.2998 46.3 77.6998 46.3 79.3998C46.3 80.0998 45.7 81.4998 44.7 83.4998C44.1 84.5998 43.5 85.5998 43.2 85.9998Z" fill="black"/>
<path opacity="0.2" d="M43.2 77.5C42.3 77.5 41.5 78.2 41.5 79.1C41.5 80 42.3 80.7 43.2 80.7C44.1 80.7 44.9 80 44.9 79.1C44.9 78.2 44.1 77.5 43.2 77.5ZM43.2 80.3C42.5 80.3 42 79.8 42 79.1C42 78.4 42.6 77.9 43.2 77.9C43.8 77.9 44.4 78.4 44.4 79.1C44.5 79.8 43.9 80.3 43.2 80.3Z" fill="black"/>
<path opacity="0.2" d="M77.3 49.5C75.3 49.5 73.7 51.1 73.7 53.1C73.7 55 76.9 60.1 77.1 60.3C77.1 60.4 77.2 60.4 77.3 60.4C77.4 60.4 77.4 60.4 77.5 60.3C77.6 60.1 80.9 55 80.9 53.1C80.8 51.1 79.2 49.5 77.3 49.5ZM77.3 59.7C77 59.2 76.4 58.2 75.8 57.2C74.7 55.2 74.2 53.8 74.2 53.1C74.2 51.4 75.6 50 77.3 50C79 50 80.4 51.4 80.4 53.1C80.4 53.8 79.8 55.2 78.8 57.2C78.2 58.2 77.6 59.2 77.3 59.7Z" fill="black"/>
<path opacity="0.2" d="M77.3 51.0996C76.4 51.0996 75.6 51.7996 75.6 52.6996C75.6 53.5996 76.4 54.2996 77.3 54.2996C78.2 54.2996 79 53.5996 79 52.6996C79 51.8996 78.2 51.0996 77.3 51.0996ZM77.3 53.9996C76.6 53.9996 76.1 53.4996 76.1 52.7996C76.1 52.0996 76.7 51.5996 77.3 51.5996C78 51.5996 78.5 52.0996 78.5 52.7996C78.5 53.3996 78 53.9996 77.3 53.9996Z" fill="black"/>
<path opacity="0.2" d="M20.6 45.2002C18.6 45.2002 17 46.8002 17 48.8002C17 50.7002 20.2 55.8002 20.4 56.0002C20.4 56.1002 20.5 56.1002 20.6 56.1002C20.7 56.1002 20.7 56.1002 20.8 56.0002C20.9 55.8002 24.2 50.7002 24.2 48.8002C24.1 46.8002 22.5 45.2002 20.6 45.2002ZM20.6 55.4002C20.3 54.9002 19.7 53.9002 19.1 52.9002C18 50.9002 17.5 49.5002 17.5 48.8002C17.5 47.1002 18.9 45.7002 20.6 45.7002C22.3 45.7002 23.7 47.1002 23.7 48.8002C23.7 49.5002 23.1 50.9002 22.1 52.9002C21.5 54.0002 20.9 54.9002 20.6 55.4002Z" fill="black"/>
<path opacity="0.2" d="M20.6 46.9004C19.7 46.9004 18.9 47.6004 18.9 48.5004C18.9 49.4004 19.7 50.1004 20.6 50.1004C21.5 50.1004 22.3 49.4004 22.3 48.5004C22.3 47.6004 21.5 46.9004 20.6 46.9004ZM20.6 49.7004C19.9 49.7004 19.4 49.2004 19.4 48.5004C19.4 47.8004 20 47.3004 20.6 47.3004C21.3 47.3004 21.8 47.8004 21.8 48.5004C21.8 49.2004 21.3 49.7004 20.6 49.7004Z" fill="black"/>
<path opacity="0.2" d="M60.7 17.9004C58.7 17.9004 57.1 19.5004 57.1 21.5004C57.1 23.4004 60.3 28.5004 60.5 28.7004C60.5 28.8004 60.6 28.8004 60.7 28.8004C60.8 28.8004 60.8 28.8004 60.9 28.7004C61 28.5004 64.3 23.4004 64.3 21.5004C64.2 19.5004 62.6 17.9004 60.7 17.9004ZM60.7 28.1004C60.4 27.6004 59.8 26.6004 59.2 25.6004C58.1 23.6004 57.6 22.2004 57.6 21.5004C57.6 19.8004 59 18.4004 60.7 18.4004C62.4 18.4004 63.8 19.8004 63.8 21.5004C63.8 22.2004 63.2 23.6004 62.2 25.6004C61.6 26.6004 61 27.6004 60.7 28.1004Z" fill="black"/>
<path opacity="0.2" d="M60.7 19.5C59.8 19.5 59 20.2 59 21.1C59 22 59.8 22.7 60.7 22.7C61.6 22.7 62.4 22 62.4 21.1C62.4 20.3 61.6 19.5 60.7 19.5ZM60.7 22.4C60 22.4 59.5 21.9 59.5 21.2C59.5 20.5 60.1 20 60.7 20C61.4 20 61.9 20.5 61.9 21.2C61.9 21.8 61.4 22.4 60.7 22.4Z" fill="black"/>
<path opacity="0.2" d="M206.4 17C204.4 17 202.8 18.6 202.8 20.6C202.8 22.5 206 27.6 206.2 27.8C206.2 27.9 206.3 27.9 206.4 27.9C206.5 27.9 206.5 27.9 206.6 27.8C206.7 27.6 210 22.5 210 20.6C210 18.6 208.4 17 206.4 17ZM206.4 27.2C206.1 26.7 205.5 25.7 204.9 24.7C203.8 22.7 203.3 21.3 203.3 20.6C203.3 18.9 204.7 17.5 206.4 17.5C208.1 17.5 209.5 18.9 209.5 20.6C209.5 21.3 208.9 22.7 207.9 24.7C207.3 25.8 206.7 26.7 206.4 27.2Z" fill="black"/>
<path opacity="0.2" d="M206.4 18.7002C205.5 18.7002 204.7 19.4002 204.7 20.3002C204.7 21.2002 205.5 21.9002 206.4 21.9002C207.3 21.9002 208.1 21.2002 208.1 20.3002C208.1 19.4002 207.4 18.7002 206.4 18.7002ZM206.4 21.5002C205.7 21.5002 205.2 21.0002 205.2 20.3002C205.2 19.6002 205.8 19.1002 206.4 19.1002C207.1 19.1002 207.6 19.6002 207.6 20.3002C207.7 21.0002 207.1 21.5002 206.4 21.5002Z" fill="black"/>
<path opacity="0.2" d="M159.8 27.7998C157.8 27.7998 156.2 29.3998 156.2 31.3998C156.2 33.2998 159.4 38.3998 159.6 38.5998C159.6 38.6998 159.7 38.6998 159.8 38.6998C159.9 38.6998 159.9 38.6998 160 38.5998C160.1 38.3998 163.4 33.2998 163.4 31.3998C163.4 29.3998 161.8 27.7998 159.8 27.7998ZM159.8 37.9998C159.5 37.4998 158.9 36.4998 158.3 35.4998C157.2 33.4998 156.7 32.0998 156.7 31.3998C156.7 29.6998 158.1 28.2998 159.8 28.2998C161.5 28.2998 162.9 29.6998 162.9 31.3998C162.9 32.0998 162.3 33.4998 161.3 35.4998C160.7 36.4998 160.1 37.4998 159.8 37.9998Z" fill="black"/>
<path opacity="0.2" d="M159.8 29.4004C158.9 29.4004 158.1 30.1004 158.1 31.0004C158.1 31.9004 158.9 32.6004 159.8 32.6004C160.7 32.6004 161.5 31.9004 161.5 31.0004C161.5 30.2004 160.7 29.4004 159.8 29.4004ZM159.8 32.3004C159.1 32.3004 158.6 31.8004 158.6 31.1004C158.6 30.4004 159.2 29.9004 159.8 29.9004C160.5 29.9004 161 30.4004 161 31.1004C161 31.7004 160.5 32.3004 159.8 32.3004Z" fill="black"/>
<path opacity="0.2" d="M205.2 97.5C203.2 97.5 201.6 99.1 201.6 101.1C201.6 103 204.8 108.1 205 108.3C205 108.4 205.1 108.4 205.2 108.4C205.3 108.4 205.3 108.4 205.4 108.3C205.5 108.1 208.8 103 208.8 101.1C208.8 99.1 207.2 97.5 205.2 97.5ZM205.2 107.8C204.9 107.3 204.3 106.3 203.7 105.3C202.6 103.3 202.1 101.9 202.1 101.2C202.1 99.5 203.5 98.1 205.2 98.1C206.9 98.1 208.3 99.5 208.3 101.2C208.3 101.9 207.7 103.3 206.7 105.3C206.1 106.3 205.5 107.3 205.2 107.8Z" fill="black"/>
<path opacity="0.2" d="M205.2 99.2002C204.3 99.2002 203.5 99.9002 203.5 100.8C203.5 101.7 204.3 102.4 205.2 102.4C206.1 102.4 206.9 101.7 206.9 100.8C206.9 100 206.1 99.2002 205.2 99.2002ZM205.2 102.1C204.5 102.1 204 101.6 204 100.9C204 100.2 204.6 99.7002 205.2 99.7002C205.8 99.7002 206.4 100.2 206.4 100.9C206.4 101.5 205.9 102.1 205.2 102.1Z" fill="black"/>
<path opacity="0.2" d="M165.1 84C163.1 84 161.5 85.6 161.5 87.6C161.5 89.5 164.7 94.6 164.9 94.8C164.9 94.9 165 94.9 165.1 94.9C165.2 94.9 165.2 94.9 165.3 94.8C165.4 94.6 168.7 89.5 168.7 87.6C168.6 85.6 167 84 165.1 84ZM165.1 94.2C164.8 93.7 164.2 92.7 163.6 91.7C162.5 89.7 162 88.3 162 87.6C162 85.9 163.4 84.5 165.1 84.5C166.8 84.5 168.2 85.9 168.2 87.6C168.2 88.3 167.6 89.7 166.6 91.7C165.9 92.8 165.4 93.8 165.1 94.2Z" fill="black"/>
<path opacity="0.2" d="M165.1 85.7002C164.2 85.7002 163.4 86.4002 163.4 87.3002C163.4 88.2002 164.2 88.9002 165.1 88.9002C166 88.9002 166.8 88.2002 166.8 87.3002C166.7 86.4002 166 85.7002 165.1 85.7002ZM165.1 88.5002C164.4 88.5002 163.9 88.0002 163.9 87.3002C163.9 86.6002 164.5 86.1002 165.1 86.1002C165.8 86.1002 166.3 86.6002 166.3 87.3002C166.3 88.0002 165.7 88.5002 165.1 88.5002Z" fill="black"/>
<path opacity="0.2" d="M188.7 54.2998C186.7 54.2998 185.1 55.8998 185.1 57.8998C185.1 59.7998 188.3 64.8998 188.5 65.0998C188.5 65.1998 188.6 65.1998 188.7 65.1998C188.8 65.1998 188.8 65.1998 188.9 65.0998C189 64.8998 192.3 59.7998 192.3 57.8998C192.3 55.8998 190.7 54.2998 188.7 54.2998ZM188.7 64.4998C188.4 63.9998 187.8 62.9998 187.2 61.9998C186.1 59.9998 185.6 58.5998 185.6 57.8998C185.6 56.1998 187 54.7998 188.7 54.7998C190.4 54.7998 191.8 56.1998 191.8 57.8998C191.8 58.5998 191.2 59.9998 190.2 61.9998C189.6 62.9998 189 63.9998 188.7 64.4998Z" fill="black"/>
<path opacity="0.2" d="M188.7 55.9004C187.8 55.9004 187 56.6004 187 57.5004C187 58.4004 187.8 59.1004 188.7 59.1004C189.6 59.1004 190.4 58.4004 190.4 57.5004C190.4 56.7004 189.6 55.9004 188.7 55.9004ZM188.7 58.8004C188 58.8004 187.5 58.3004 187.5 57.6004C187.5 56.9004 188.1 56.4004 188.7 56.4004C189.3 56.4004 189.9 56.9004 189.9 57.6004C189.9 58.2004 189.4 58.8004 188.7 58.8004Z" fill="black"/>
<path opacity="0.2" d="M84.8 95.4004C82.8 95.4004 81.2 97.0004 81.2 99.0004C81.2 100.9 84.4 106 84.6 106.2C84.6 106.3 84.7 106.3 84.8 106.3C84.9 106.3 84.9 106.3 85 106.2C85.1 106 88.4 100.9 88.4 99.0004C88.3 97.0004 86.7 95.4004 84.8 95.4004ZM84.8 105.7C84.5 105.2 83.9 104.2 83.3 103.2C82.2 101.2 81.7 99.8004 81.7 99.1004C81.7 97.4004 83.1 96.0004 84.8 96.0004C86.5 96.0004 87.9 97.4004 87.9 99.1004C87.9 99.8004 87.3 101.2 86.3 103.2C85.6 104.2 85.1 105.2 84.8 105.7Z" fill="black"/>
<path opacity="0.2" d="M84.8 97.0996C83.9 97.0996 83.1 97.7996 83.1 98.6996C83.1 99.5996 83.9 100.3 84.8 100.3C85.7 100.3 86.5 99.5996 86.5 98.6996C86.4 97.8996 85.7 97.0996 84.8 97.0996ZM84.8 99.9996C84.1 99.9996 83.6 99.4996 83.6 98.7996C83.6 98.0996 84.2 97.5996 84.8 97.5996C85.5 97.5996 86 98.0996 86 98.7996C86 99.3996 85.4 99.9996 84.8 99.9996Z" fill="black"/>
</svg>
